<svg xmlns="http://www.w3.org/2000/svg" xmlns:xlink="http://www.w3.org/1999/xlink" width="500" zoomAndPan="magnify" viewBox="0 0 375 374.999991" height="500" preserveAspectRatio="xMidYMid meet" version="1.0"><defs><g/><clipPath id="fcf404e9e9"><path d="M 1.375 1.375 L 373.625 1.375 L 373.625 373.625 L 1.375 373.625 Z M 1.375 1.375 " clip-rule="nonzero"/></clipPath><clipPath id="5758bb1710"><path d="M 187.5 1.375 C 84.707031 1.375 1.375 84.707031 1.375 187.5 C 1.375 290.292969 84.707031 373.625 187.5 373.625 C 290.292969 373.625 373.625 290.292969 373.625 187.5 C 373.625 84.707031 290.292969 1.375 187.5 1.375 Z M 187.5 1.375 " clip-rule="nonzero"/></clipPath><clipPath id="65ac003ecd"><path d="M 23.066406 23.066406 L 351.566406 23.066406 L 351.566406 351.566406 L 23.066406 351.566406 Z M 23.066406 23.066406 " clip-rule="nonzero"/></clipPath><clipPath id="93710ec463"><path d="M 187.496094 23.066406 C 96.683594 23.066406 23.066406 96.683594 23.066406 187.496094 C 23.066406 278.308594 96.683594 351.929688 187.496094 351.929688 C 278.308594 351.929688 351.929688 278.308594 351.929688 187.496094 C 351.929688 96.683594 278.308594 23.066406 187.496094 23.066406 Z M 187.496094 23.066406 " clip-rule="nonzero"/></clipPath></defs><g clip-path="url(#fcf404e9e9)"><g clip-path="url(#5758bb1710)"><path fill="#ff3600" d="M 1.375 1.375 L 373.625 1.375 L 373.625 373.625 L 1.375 373.625 Z M 1.375 1.375 " fill-opacity="1" fill-rule="nonzero"/></g></g><g fill="#ffffff" fill-opacity="1"><g transform="translate(57.047574, 202.273432)"><g><path d="M 45.359375 -26 L 45.359375 -15.921875 C 44.160156 -10.410156 41.535156 -6.238281 37.484375 -3.40625 C 33.429688 -0.570312 28.910156 0.84375 23.921875 0.84375 C 17.648438 0.84375 12.3125 -1.5 7.90625 -6.1875 C 3.5 -10.875 1.296875 -16.539062 1.296875 -23.1875 C 1.296875 -29.9375 3.453125 -35.640625 7.765625 -40.296875 C 12.078125 -44.953125 17.460938 -47.28125 23.921875 -47.28125 C 31.460938 -47.28125 37.425781 -44.632812 41.8125 -39.34375 L 34.890625 -31.75 C 32.421875 -35.71875 28.96875 -37.703125 24.53125 -37.703125 C 21.269531 -37.703125 18.484375 -36.285156 16.171875 -33.453125 C 13.867188 -30.617188 12.71875 -27.195312 12.71875 -23.1875 C 12.71875 -19.25 13.867188 -15.878906 16.171875 -13.078125 C 18.484375 -10.285156 21.269531 -8.890625 24.53125 -8.890625 C 27.238281 -8.890625 29.59375 -9.703125 31.59375 -11.328125 C 33.601562 -12.960938 34.609375 -15.132812 34.609375 -17.84375 L 23.921875 -17.84375 L 23.921875 -26 Z M 45.359375 -26 "/></g></g></g><g fill="#ffffff" fill-opacity="1"><g transform="translate(111.687919, 202.273432)"><g><path d="M 45.640625 0 L 31.0625 0 L 13.953125 -19.703125 L 13.953125 0 L 3.375 0 L 3.375 -46.4375 L 13.953125 -46.4375 L 13.953125 -27.46875 L 29.890625 -46.4375 L 42.71875 -46.4375 L 24.03125 -24.421875 Z M 45.640625 0 "/></g></g></g><g fill="#ffffff" fill-opacity="1"><g transform="translate(163.964869, 202.273432)"><g><path d="M 41.765625 0 L 39.5625 -27.515625 L 39.28125 -27.515625 L 29.765625 -0.28125 L 23.46875 -0.28125 L 13.953125 -27.515625 L 13.671875 -27.515625 L 11.484375 0 L 0.90625 0 L 5.0625 -46.4375 L 16.328125 -46.4375 L 26.625 -19.640625 L 36.921875 -46.4375 L 48.171875 -46.4375 L 52.34375 0 Z M 41.765625 0 "/></g></g></g><g fill="#ffffff" fill-opacity="1"><g transform="translate(225.18894, 202.273432)"><g><path d="M 28.078125 -9.5625 C 29.691406 -9.5625 31.257812 -9.804688 32.78125 -10.296875 C 34.300781 -10.785156 35.414062 -11.253906 36.125 -11.703125 L 37.203125 -12.4375 L 41.703125 -3.4375 C 41.554688 -3.320312 41.347656 -3.171875 41.078125 -2.984375 C 40.816406 -2.796875 40.207031 -2.445312 39.25 -1.9375 C 38.300781 -1.4375 37.28125 -1 36.1875 -0.625 C 35.101562 -0.25 33.675781 0.0859375 31.90625 0.390625 C 30.144531 0.691406 28.328125 0.84375 26.453125 0.84375 C 22.140625 0.84375 18.050781 -0.210938 14.1875 -2.328125 C 10.320312 -4.453125 7.207031 -7.367188 4.84375 -11.078125 C 2.476562 -14.796875 1.296875 -18.8125 1.296875 -23.125 C 1.296875 -26.394531 1.988281 -29.53125 3.375 -32.53125 C 4.757812 -35.53125 6.601562 -38.097656 8.90625 -40.234375 C 11.21875 -42.378906 13.910156 -44.085938 16.984375 -45.359375 C 20.066406 -46.640625 23.222656 -47.28125 26.453125 -47.28125 C 29.453125 -47.28125 32.21875 -46.921875 34.75 -46.203125 C 37.28125 -45.492188 39.070312 -44.78125 40.125 -44.0625 L 41.703125 -43 L 37.203125 -34 C 36.941406 -34.21875 36.546875 -34.484375 36.015625 -34.796875 C 35.492188 -35.117188 34.441406 -35.539062 32.859375 -36.0625 C 31.285156 -36.59375 29.691406 -36.859375 28.078125 -36.859375 C 25.523438 -36.859375 23.234375 -36.445312 21.203125 -35.625 C 19.179688 -34.800781 17.582031 -33.710938 16.40625 -32.359375 C 15.226562 -31.003906 14.328125 -29.550781 13.703125 -28 C 13.085938 -26.445312 12.78125 -24.863281 12.78125 -23.25 C 12.78125 -19.71875 14.101562 -16.550781 16.75 -13.75 C 19.394531 -10.957031 23.171875 -9.5625 28.078125 -9.5625 Z M 28.078125 -9.5625 "/></g></g></g><g fill="#ffffff" fill-opacity="1"><g transform="translate(275.552662, 202.273432)"><g><path d="M 28.078125 -9.5625 C 29.691406 -9.5625 31.257812 -9.804688 32.78125 -10.296875 C 34.300781 -10.785156 35.414062 -11.253906 36.125 -11.703125 L 37.203125 -12.4375 L 41.703125 -3.4375 C 41.554688 -3.320312 41.347656 -3.171875 41.078125 -2.984375 C 40.816406 -2.796875 40.207031 -2.445312 39.25 -1.9375 C 38.300781 -1.4375 37.28125 -1 36.1875 -0.625 C 35.101562 -0.25 33.675781 0.0859375 31.90625 0.390625 C 30.144531 0.691406 28.328125 0.84375 26.453125 0.84375 C 22.140625 0.84375 18.050781 -0.210938 14.1875 -2.328125 C 10.320312 -4.453125 7.207031 -7.367188 4.84375 -11.078125 C 2.476562 -14.796875 1.296875 -18.8125 1.296875 -23.125 C 1.296875 -26.394531 1.988281 -29.53125 3.375 -32.53125 C 4.757812 -35.53125 6.601562 -38.097656 8.90625 -40.234375 C 11.21875 -42.378906 13.910156 -44.085938 16.984375 -45.359375 C 20.066406 -46.640625 23.222656 -47.28125 26.453125 -47.28125 C 29.453125 -47.28125 32.21875 -46.921875 34.75 -46.203125 C 37.28125 -45.492188 39.070312 -44.78125 40.125 -44.0625 L 41.703125 -43 L 37.203125 -34 C 36.941406 -34.21875 36.546875 -34.484375 36.015625 -34.796875 C 35.492188 -35.117188 34.441406 -35.539062 32.859375 -36.0625 C 31.285156 -36.59375 29.691406 -36.859375 28.078125 -36.859375 C 25.523438 -36.859375 23.234375 -36.445312 21.203125 -35.625 C 19.179688 -34.800781 17.582031 -33.710938 16.40625 -32.359375 C 15.226562 -31.003906 14.328125 -29.550781 13.703125 -28 C 13.085938 -26.445312 12.78125 -24.863281 12.78125 -23.25 C 12.78125 -19.71875 14.101562 -16.550781 16.75 -13.75 C 19.394531 -10.957031 23.171875 -9.5625 28.078125 -9.5625 Z M 28.078125 -9.5625 "/></g></g></g><g clip-path="url(#65ac003ecd)"><g clip-path="url(#93710ec463)"><path stroke-linecap="butt" transform="matrix(0.75, 0, 0, 0.75, 23.065491, 23.065487)" fill="none" stroke-linejoin="miter" d="M 219.240818 0.00122603 C 98.157476 0.00122603 0.00122003 98.157482 0.00122003 219.240824 C 0.00122003 340.324165 98.157476 438.48563 219.240818 438.48563 C 340.324159 438.48563 438.485624 340.324165 438.485624 219.240824 C 438.485624 98.157482 340.324159 0.00122603 219.240818 0.00122603 Z M 219.240818 0.00122603 " stroke="#ffffff" stroke-width="24" stroke-opacity="1" stroke-miterlimit="4"/></g></g></svg>